<svg width="0" height="0" class="hidden">
  <symbol fill="none" xmlns="http://www.w3.org/2000/svg" viewBox="0 0 24 24" id="Calling">
    <path opacity="0.4" d="M14.353 2.5C18.054 2.911 20.978 5.831 21.393 9.532" stroke="#FF5722" stroke-width="1.5" stroke-linecap="round" stroke-linejoin="round"></path>
    <path opacity="0.4" d="M14.353 6.04297C16.124 6.38697 17.508 7.77197 17.853 9.54297" stroke="#FF5722" stroke-width="1.5" stroke-linecap="round" stroke-linejoin="round"></path>
    <path fill-rule="evenodd" clip-rule="evenodd" d="M11.0315 12.4724C15.0205 16.4604 15.9254 11.8467 18.4653 14.3848C20.9138 16.8328 22.3222 17.3232 19.2188 20.4247C18.8302 20.737 16.3613 24.4943 7.68447 15.8197C-0.993406 7.144 2.76157 4.67244 3.07394 4.28395C6.18377 1.17385 6.66682 2.58938 9.11539 5.03733C11.6541 7.5765 7.04254 8.48441 11.0315 12.4724Z" stroke="#FF5722" stroke-width="1.5" stroke-linecap="round" stroke-linejoin="round"></path>
  </symbol>
  <symbol fill="none" xmlns="http://www.w3.org/2000/svg" viewBox="0 0 24 24" id="linkedin">
    <path d="M20.447 20.452H16.893V14.883C16.893 13.555 16.866 11.846 15.041 11.846C13.188 11.846 12.905 13.291 12.905 14.785V20.452H9.351V9H12.765V10.561H12.811C13.288 9.661 14.448 8.711 16.181 8.711C19.782 8.711 20.448 11.081 20.448 14.166V20.452H20.447ZM5.337 7.433C4.193 7.433 3.274 6.507 3.274 5.368C3.274 4.23 4.194 3.305 5.337 3.305C6.477 3.305 7.401 4.23 7.401 5.368C7.401 6.507 6.476 7.433 5.337 7.433ZM7.119 20.452H3.555V9H7.119V20.452ZM22.225 0H1.771C0.792 0 0 0.774 0 1.729V22.271C0 23.227 0.792 24 1.771 24H22.222C23.2 24 24 23.227 24 22.271V1.729C24 0.774 23.2 0 22.222 0H22.225Z" fill="#FF5722"></path>
  </symbol>
  <symbol fill="none" xmlns="http://www.w3.org/2000/svg" viewBox="0 0 24 24" id="Location">
    <path fill-rule="evenodd" clip-rule="evenodd" d="M4.23901 10.3912C4.25342 6.15065 7.70278 2.72465 11.9434 2.73906C16.1839 2.75347 19.6099 6.20282 19.5955 10.4434V10.5304C19.5434 13.2869 18.0042 15.8347 16.1173 17.826C15.0381 18.9466 13.833 19.9387 12.526 20.7825C12.1765 21.0848 11.6581 21.0848 11.3086 20.7825C9.36008 19.5143 7.64995 17.9131 6.2564 16.0521C5.01436 14.4293 4.30918 12.4597 4.23901 10.4173L4.23901 10.3912Z" stroke="#FF5722" stroke-width="1.5" stroke-linecap="round" stroke-linejoin="round"></path>
    <circle opacity="0.4" cx="11.9172" cy="10.539" r="2.46087" stroke="#FF5722" stroke-width="1.5" stroke-linecap="round" stroke-linejoin="round"></circle>
  </symbol>
  <symbol fill="none" xmlns="http://www.w3.org/2000/svg" viewBox="0 0 24 24" id="Message">
    <path opacity="0.4" d="M17.2678 8.56104L13.0024 11.9953C12.1952 12.6282 11.0636 12.6282 10.2564 11.9953L5.95435 8.56104" stroke="#FF5722" stroke-width="1.5" stroke-linecap="round" stroke-linejoin="round"></path>
    <path fill-rule="evenodd" clip-rule="evenodd" d="M6.88787 3H16.3158C17.6752 3.01525 18.969 3.58993 19.896 4.5902C20.823 5.59048 21.3022 6.92903 21.222 8.29412V14.822C21.3022 16.1871 20.823 17.5256 19.896 18.5259C18.969 19.5262 17.6752 20.1009 16.3158 20.1161H6.88787C3.96796 20.1161 2 17.7407 2 14.822V8.29412C2 5.37545 3.96796 3 6.88787 3Z" stroke="#FF5722" stroke-width="1.5" stroke-linecap="round" stroke-linejoin="round"></path>
  </symbol>
  <symbol fill="none" xmlns="http://www.w3.org/2000/svg" viewBox="0 0 24 24" id="telegram">
    <g clip-path="url(#clip0_308:4329)">
      <path d="M11.944 3.26667e-05C8.77112 0.0148396 5.73324 1.28566 3.4949 3.53449C1.25656 5.78332 -3.4549e-05 8.82711 7.12435e-10 12C7.12441e-10 15.1826 1.26428 18.2349 3.51472 20.4853C5.76516 22.7357 8.8174 24 12 24C15.1826 24 18.2348 22.7357 20.4853 20.4853C22.7357 18.2349 24 15.1826 24 12C24 8.81743 22.7357 5.76519 20.4853 3.51475C18.2348 1.26431 15.1826 3.26667e-05 12 3.26667e-05C11.9813 -1.08889e-05 11.9627 -1.08889e-05 11.944 3.26667e-05V3.26667e-05ZM16.906 7.22403C17.006 7.22203 17.227 7.24703 17.371 7.36403C17.4667 7.44713 17.5277 7.56311 17.542 7.68903C17.558 7.78203 17.578 7.99503 17.562 8.16103C17.382 10.059 16.6 14.663 16.202 16.788C16.034 17.688 15.703 17.989 15.382 18.018C14.686 18.083 14.157 17.558 13.482 17.116C12.426 16.423 11.829 15.992 10.804 15.316C9.619 14.536 10.387 14.106 11.062 13.406C11.239 13.222 14.309 10.429 14.369 10.176C14.376 10.144 14.383 10.026 14.313 9.96403C14.243 9.90203 14.139 9.92303 14.064 9.94003C13.958 9.96403 12.271 11.08 9.003 13.285C8.523 13.615 8.09 13.775 7.701 13.765C7.273 13.757 6.449 13.524 5.836 13.325C5.084 13.08 4.487 12.951 4.539 12.536C4.566 12.32 4.864 12.099 5.432 11.873C8.93 10.349 11.262 9.34403 12.43 8.85903C15.762 7.47303 16.455 7.23203 16.906 7.22403V7.22403Z" fill="#FF5722"></path>
    </g>
    <defs>
      <clipPath id="clip0_308:4329">
        <rect width="24" height="24" fill="white"></rect>
      </clipPath>
    </defs>
  </symbol>
  <symbol fill="none" xmlns="http://www.w3.org/2000/svg" viewBox="0 0 24 24" id="twitter">
    <path d="M23.953 4.57009C23.0545 4.96569 22.1026 5.22683 21.128 5.34509C22.1541 4.72834 22.9224 3.76113 23.291 2.62209C22.34 3.17709 21.286 3.58109 20.164 3.80609C19.4238 3.01452 18.4429 2.48951 17.3736 2.31259C16.3044 2.13567 15.2067 2.31674 14.2509 2.82768C13.2952 3.33862 12.5349 4.15084 12.0881 5.13821C11.6412 6.12558 11.533 7.23286 11.78 8.28809C7.69 8.09509 4.067 6.13009 1.64 3.16209C1.19879 3.9119 0.968664 4.76711 0.974 5.63709C0.974 7.34709 1.844 8.85009 3.162 9.73309C2.38086 9.70822 1.61697 9.49702 0.934 9.11709V9.17709C0.933557 10.3135 1.32627 11.415 2.04551 12.2948C2.76474 13.1747 3.76621 13.7786 4.88 14.0041C4.1583 14.1975 3.40241 14.2265 2.668 14.0891C2.98412 15.0671 3.59766 15.922 4.42301 16.5346C5.24837 17.1471 6.24435 17.4868 7.272 17.5061C5.53153 18.872 3.38248 19.6134 1.17 19.6111C0.78 19.6111 0.391 19.5881 0 19.5441C2.25571 20.9884 4.87851 21.7551 7.557 21.7531C16.61 21.7531 21.555 14.2571 21.555 7.76809C21.555 7.55809 21.555 7.34809 21.54 7.13809C22.506 6.44295 23.3392 5.57991 24 4.59009L23.953 4.57009Z" fill="#FF5722"></path>
  </symbol>

  <svg width="0" height="0" class="hidden">
  <symbol xmlns="http://www.w3.org/2000/svg" xmlns:xlink="http://www.w3.org/1999/xlink" viewBox="0 0 20 20" id="telegram-app">
    <g id="surface64577580">
      <path d="M 161.095885 33.547786 L 138.5536 150.787944 C 138.350821 151.261095 136.559605 155.587051 132.03087 157.44586 C 130.712806 157.986604 129.293352 158.256977 127.873897 158.256977 C 125.981292 158.256977 124.021093 157.783825 121.959505 156.871319 L 121.249778 156.465761 L 91.069478 132.90958 L 72.346201 150.247199 C 70.690171 151.565264 68.121635 152.47777 65.519302 151.463874 C 62.579004 150.585165 60.889178 146.225412 59.875282 142.913353 C 58.219252 137.573501 50.716423 112.631663 48.688631 105.906154 L 18.102773 95.42923 C 17.359249 95.125061 11.106891 92.725508 10.363368 86.878708 C 9.586047 80.423571 17.359249 77.51707 18.237959 77.212901 C 23.138455 75.117516 143.487894 23.476421 147.881442 21.719001 C 152.072212 20.029175 156.127795 20.36714 158.696331 22.530118 C 160.555141 24.118555 162.481543 27.295428 161.095885 33.547786 Z M 134.160052 44.734437 L 55.042378 103.202432 L 65.35032 137.607298 L 75.692057 110.063127 Z M 134.160052 44.734437 " transform="matrix(0.115581,0,0,0.115581,0.06,0.06)"></path>
      <path d="M 18.402344 2.664062 C 18.105469 2.414062 17.636719 2.375 17.152344 2.570312 C 16.644531 2.773438 2.734375 8.742188 2.167969 8.984375 C 2.066406 9.019531 1.167969 9.355469 1.257812 10.101562 C 1.34375 10.777344 2.066406 11.054688 2.152344 11.089844 L 5.6875 12.300781 C 5.921875 13.078125 6.789062 15.960938 6.980469 16.578125 C 7.097656 16.960938 7.292969 17.464844 7.632812 17.566406 C 7.933594 17.683594 8.230469 17.578125 8.421875 17.425781 L 10.585938 15.421875 L 14.074219 18.144531 L 14.15625 18.191406 C 14.394531 18.296875 14.621094 18.351562 14.839844 18.351562 C 15.003906 18.351562 15.167969 18.320312 15.320312 18.257812 C 15.84375 18.042969 16.050781 17.542969 16.074219 17.488281 L 18.679688 3.9375 C 18.839844 3.214844 18.617188 2.847656 18.402344 2.664062 Z M 8.808594 12.78125 L 7.613281 15.964844 L 6.421875 11.988281 L 15.566406 5.230469 Z M 8.808594 12.78125 "></path>
    </g>
  </symbol>
  <symbol xmlns="http://www.w3.org/2000/svg" xmlns:xlink="http://www.w3.org/1999/xlink" viewBox="0 0 20 20" id="facebook">
    <g id="surface64250682">
      <path d="M 3.601562 1.601562 C 2.5 1.601562 1.601562 2.5 1.601562 3.601562 L 1.601562 16.398438 C 1.601562 17.5 2.5 18.398438 3.601562 18.398438 L 10.332031 18.398438 C 10.375 18.40625 10.421875 18.40625 10.464844 18.398438 L 12.734375 18.398438 C 12.777344 18.40625 12.820312 18.40625 12.863281 18.398438 L 16.398438 18.398438 C 17.5 18.398438 18.398438 17.5 18.398438 16.398438 L 18.398438 3.601562 C 18.398438 2.5 17.5 1.601562 16.398438 1.601562 Z M 3.601562 2.398438 L 16.398438 2.398438 C 17.066406 2.398438 17.601562 2.933594 17.601562 3.601562 L 17.601562 16.398438 C 17.601562 17.066406 17.066406 17.601562 16.398438 17.601562 L 13.199219 17.601562 L 13.199219 12 L 14.726562 12 L 15.289062 9.199219 L 13.199219 9.199219 L 13.199219 8.398438 C 13.199219 8.175781 13.222656 8.160156 13.296875 8.109375 C 13.371094 8.0625 13.601562 8 14 8 L 15.199219 8 L 15.199219 5.746094 L 14.972656 5.640625 C 14.972656 5.640625 14.054688 5.199219 12.800781 5.199219 C 11.898438 5.199219 11.160156 5.558594 10.6875 6.148438 C 10.214844 6.742188 10 7.535156 10 8.398438 L 10 9.199219 L 8.800781 9.199219 L 8.800781 12 L 10 12 L 10 17.601562 L 3.601562 17.601562 C 2.933594 17.601562 2.398438 17.066406 2.398438 16.398438 L 2.398438 3.601562 C 2.398438 2.933594 2.933594 2.398438 3.601562 2.398438 Z M 12.800781 6 C 13.632812 6 14.15625 6.183594 14.398438 6.28125 L 14.398438 7.199219 L 14 7.199219 C 13.539062 7.199219 13.171875 7.238281 12.859375 7.441406 C 12.550781 7.640625 12.398438 8.023438 12.398438 8.398438 L 12.398438 10 L 14.3125 10 L 14.070312 11.199219 L 12.398438 11.199219 L 12.398438 17.601562 L 10.800781 17.601562 L 10.800781 11.199219 L 9.601562 11.199219 L 9.601562 10 L 10.800781 10 L 10.800781 8.398438 C 10.800781 7.667969 10.984375 7.058594 11.3125 6.648438 C 11.640625 6.242188 12.101562 6 12.800781 6 Z M 12.800781 6 "></path>
    </g>
  </symbol>
  <symbol xmlns="http://www.w3.org/2000/svg" xmlns:xlink="http://www.w3.org/1999/xlink" viewBox="0 0 20 20" id="instagram">
    <g id="surface64248263">
      <path d="M 6.398438 1.199219 C 3.53125 1.199219 1.199219 3.53125 1.199219 6.398438 L 1.199219 13.601562 C 1.199219 16.46875 3.53125 18.800781 6.398438 18.800781 L 13.601562 18.800781 C 16.46875 18.800781 18.800781 16.46875 18.800781 13.601562 L 18.800781 6.398438 C 18.800781 3.53125 16.46875 1.199219 13.601562 1.199219 Z M 6.398438 2 L 13.601562 2 C 16.035156 2 18 3.964844 18 6.398438 L 18 13.601562 C 18 16.035156 16.035156 18 13.601562 18 L 6.398438 18 C 3.964844 18 2 16.035156 2 13.601562 L 2 6.398438 C 2 3.964844 3.964844 2 6.398438 2 Z M 14.800781 4.398438 C 14.359375 4.398438 14 4.757812 14 5.199219 C 14 5.640625 14.359375 6 14.800781 6 C 15.242188 6 15.601562 5.640625 15.601562 5.199219 C 15.601562 4.757812 15.242188 4.398438 14.800781 4.398438 Z M 10 5.601562 C 7.574219 5.601562 5.601562 7.574219 5.601562 10 C 5.601562 12.425781 7.574219 14.398438 10 14.398438 C 12.425781 14.398438 14.398438 12.425781 14.398438 10 C 14.398438 7.574219 12.425781 5.601562 10 5.601562 Z M 10 6.398438 C 11.992188 6.398438 13.601562 8.007812 13.601562 10 C 13.601562 11.992188 11.992188 13.601562 10 13.601562 C 8.007812 13.601562 6.398438 11.992188 6.398438 10 C 6.398438 8.007812 8.007812 6.398438 10 6.398438 Z M 10 6.398438 "></path>
    </g>
  </symbol>
  <symbol xmlns="http://www.w3.org/2000/svg" xmlns:xlink="http://www.w3.org/1999/xlink" viewBox="0 0 20 20" id="twitter-2">
    <g id="surface64581366">
      <path d="M 20.023438 4.175781 C 19.285156 4.503906 18.492188 4.722656 17.660156 4.824219 C 18.511719 4.3125 19.164062 3.507812 19.46875 2.546875 C 18.675781 3.019531 17.792969 3.359375 16.859375 3.546875 C 16.109375 2.746094 15.039062 2.246094 13.855469 2.246094 C 11.585938 2.246094 9.742188 4.085938 9.742188 6.359375 C 9.742188 6.679688 9.78125 6.996094 9.851562 7.296875 C 6.429688 7.125 3.402344 5.488281 1.371094 3 C 1.015625 3.609375 0.816406 4.3125 0.816406 5.066406 C 0.816406 6.492188 1.539062 7.753906 2.644531 8.492188 C 1.96875 8.46875 1.335938 8.285156 0.78125 7.976562 C 0.78125 7.992188 0.78125 8.011719 0.78125 8.027344 C 0.78125 10.023438 2.199219 11.683594 4.078125 12.0625 C 3.734375 12.15625 3.371094 12.207031 2.996094 12.207031 C 2.730469 12.207031 2.472656 12.179688 2.222656 12.132812 C 2.746094 13.765625 4.265625 14.957031 6.0625 14.988281 C 4.65625 16.09375 2.882812 16.75 0.957031 16.75 C 0.625 16.75 0.296875 16.730469 -0.0234375 16.691406 C 1.796875 17.859375 3.957031 18.539062 6.28125 18.539062 C 13.847656 18.539062 17.984375 12.273438 17.984375 6.835938 C 17.984375 6.660156 17.980469 6.480469 17.972656 6.304688 C 18.777344 5.726562 19.472656 5 20.023438 4.175781 Z M 20.023438 4.175781 "></path>
    </g>
  </symbol>
  <symbol xmlns="http://www.w3.org/2000/svg" xmlns:xlink="http://www.w3.org/1999/xlink" viewBox="0 0 20 20" id="linkedin-2">
    <g id="surface64241280">
      <path d="M 3.199219 1.203125 C 1.8125 1.203125 0.804688 2.035156 0.804688 3.179688 C 0.804688 4.328125 1.835938 5.195312 3.199219 5.195312 C 4.589844 5.195312 5.597656 4.347656 5.597656 3.15625 C 5.53125 2.007812 4.542969 1.203125 3.199219 1.203125 Z M 1.199219 6 C 0.980469 6 0.800781 6.179688 0.800781 6.398438 L 0.800781 18 C 0.800781 18.21875 0.980469 18.398438 1.199219 18.398438 L 5.199219 18.398438 C 5.421875 18.398438 5.601562 18.21875 5.601562 18 L 5.601562 6.398438 C 5.601562 6.179688 5.421875 6 5.199219 6 Z M 7.199219 6 C 6.980469 6 6.800781 6.179688 6.800781 6.398438 L 6.800781 18 C 6.800781 18.21875 6.980469 18.398438 7.199219 18.398438 L 10.800781 18.398438 C 11.019531 18.398438 11.199219 18.222656 11.199219 18 L 11.199219 11.800781 C 11.199219 10.851562 11.929688 10.078125 12.855469 10.007812 C 12.902344 10 12.953125 10 13 10 C 13.046875 10 13.097656 10 13.144531 10.007812 C 14.070312 10.078125 14.800781 10.851562 14.800781 11.800781 L 14.800781 18 C 14.800781 18.222656 14.980469 18.398438 15.199219 18.398438 L 18.800781 18.398438 C 19.019531 18.398438 19.199219 18.21875 19.199219 18 L 19.199219 11.199219 C 19.199219 8.613281 17.8125 6 14.714844 6 C 13.308594 6 12.242188 6.542969 11.601562 6.996094 L 11.601562 6.398438 C 11.601562 6.179688 11.421875 6 11.199219 6 Z M 7.199219 6 "></path>
    </g>
  </symbol>
  <svg width="0" height="0" class="hidden">
  <symbol xmlns="http://www.w3.org/2000/svg" viewBox="0 0 24 24" id="application-import">
    <path d="M1 12h9.762l-2.5-2.5 1.41-1.422L14.59 13l-4.918 4.922-1.41-1.422 2.5-2.5H1v-2m18-9c1.11 0 2 .898 2 2v14c0 1.105-.895 2-2 2H5c-1.11 0-2-.898-2-2v-3h2v3h14V7H5v3H3V5c0-1.105.895-2 2-2Zm0 0"></path>
  </symbol>
  <symbol xmlns="http://www.w3.org/2000/svg" viewBox="0 0 24 24" id="download">
    <path d="M5 20h14v-2H5m14-9h-4V3H9v6H5l7 7Zm0 0"></path>
  </symbol>
  <symbol xmlns="http://www.w3.org/2000/svg" viewBox="0 0 24 24" id="car-back">
    <path d="m6 11 1-4h10l1 4m.922-5c-.211-.602-.781-1-1.422-1h-11c-.64 0-1.21.398-1.422 1L3 12v8c0 .55.45 1 1 1h1c.55 0 1-.45 1-1v-2h12v2c0 .55.45 1 1 1h1c.55 0 1-.45 1-1v-8l-2.078-6M7 16H5v-2h2v2m12 0h-2v-2h2v2m-5 0h-4v-2h4Zm0 0"></path>
  </symbol>
</svg>
</svg>
</svg>